<svg width="40" height="40" viewBox="0 0 40 40" fill="none" xmlns="http://www.w3.org/2000/svg">
<path d="M20 37.5C23.4612 37.5 26.8446 36.4736 29.7225 34.5507C32.6003 32.6278 34.8433 29.8947 36.1679 26.697C37.4924 23.4993 37.839 19.9806 37.1637 16.5859C36.4885 13.1913 34.8218 10.0731 32.3744 7.62564C29.9269 5.17822 26.8087 3.51151 23.4141 2.83627C20.0194 2.16102 16.5007 2.50758 13.303 3.83212C10.1053 5.15665 7.37221 7.39967 5.44928 10.2775C3.52636 13.1554 2.5 16.5388 2.5 20C2.5 22.8933 3.2 25.6194 4.44444 28.0247L2.5 37.5L11.9753 35.5556C14.3786 36.7981 17.1086 37.5 20 37.5Z" stroke="black" stroke-width="2.5" stroke-linecap="round" stroke-linejoin="round"/>
</svg>
