<svg width="183" height="76" viewBox="0 0 183 76" fill="none" xmlns="http://www.w3.org/2000/svg">
<path d="M0 20.619C0 19.8935 0.357999 19.3261 1.08161 18.9199C1.80142 18.5075 2.71165 18.1726 3.8085 17.9153C4.91297 17.6517 6.0479 17.3944 7.20568 17.1463C7.67032 17.0409 8.25683 16.9076 8.95759 16.7495C9.66597 16.5944 10.3896 16.4363 11.1208 16.2782C11.8521 16.1231 12.4995 15.9929 13.0708 15.8937C13.6497 15.7883 14.0686 15.7325 14.3352 15.7325C15.074 15.7325 15.8053 15.9805 16.5289 16.4766C17.2487 16.9665 17.7705 17.8781 18.098 19.2176C19.0806 18.6315 20.1698 18.0734 21.3581 17.5432C22.5539 17.0068 23.8184 16.5727 25.1513 16.241C26.4919 15.903 27.8516 15.7325 29.234 15.7325C30.9288 15.7325 32.5132 16.0642 33.9871 16.7247C35.4686 17.3789 36.6568 18.3246 37.5518 19.5648C38.4544 20.7989 38.9076 22.2779 38.9076 24.0049C38.9076 25.9986 38.5458 27.5707 37.826 28.7179C37.1024 29.8682 36.0741 30.6837 34.7335 31.1612C33.4005 31.6418 31.8276 31.8805 30.011 31.8805C28.8532 31.8805 27.943 31.7317 27.2841 31.434C26.6328 31.1302 26.1492 30.7395 25.8369 30.2682C25.5322 29.7969 25.3037 29.2884 25.1513 28.7427C24.999 28.197 24.8467 27.6947 24.6943 27.2296C24.542 26.7583 24.2982 26.3707 23.9631 26.0638C23.6279 25.7599 23.1138 25.6049 22.4244 25.6049C21.6209 25.6049 20.9696 25.7971 20.4745 26.1754C19.9756 26.5475 19.5909 27.0436 19.3167 27.6637C19.0501 28.2838 18.8521 28.9628 18.7226 29.6977C18.5893 30.4263 18.5093 31.1457 18.4788 31.8557C18.456 32.5596 18.4484 33.1952 18.4484 33.7657C18.4484 35.1641 18.6198 36.392 18.9663 37.4493C19.3091 38.5004 19.7204 39.4399 20.2003 40.2646C20.6763 41.0925 21.0877 41.8708 21.4342 42.5963C21.777 43.3157 21.9522 44.0412 21.9522 44.7668C21.9522 45.5202 21.758 46.0907 21.3733 46.4783C20.9848 46.869 20.505 47.1418 19.9261 47.2969C19.3548 47.4457 18.7835 47.5294 18.2046 47.5449C17.6257 47.5542 17.1268 47.5573 16.7117 47.5573H5.54518C5.13767 47.5573 4.64637 47.5542 4.06748 47.5449C3.48859 47.5294 2.90969 47.4457 2.3308 47.2969C1.75191 47.1418 1.26823 46.869 0.883572 46.4783C0.50653 46.0907 0.319914 45.5202 0.319914 44.7668C0.319914 44.0412 0.491296 43.3157 0.83787 42.5963C1.18063 41.8708 1.58434 41.0925 2.04136 40.2646C2.50599 39.4399 2.9135 38.5004 3.26008 37.4493C3.60284 36.392 3.77803 35.1641 3.77803 33.7657C3.77803 32.1131 3.64473 30.6961 3.38195 29.5117C3.12678 28.3303 2.81067 27.3164 2.43744 26.473C2.07182 25.6297 1.69859 24.8917 1.32536 24.253C0.959742 23.6081 0.643636 23.0065 0.38085 22.4422C0.12568 21.881 0 21.2733 0 20.619Z" fill="white"/>
<path d="M40.2373 31.8805C40.2373 29.8961 40.6524 27.9458 41.4865 26.0265C42.3282 24.1011 43.604 22.3647 45.3102 20.8175C47.0164 19.2734 49.1682 18.0393 51.7694 17.1215C54.3783 16.1975 57.467 15.7325 61.0317 15.7325C63.0121 15.7325 64.9088 15.9402 66.7292 16.3526C68.5573 16.7588 70.1797 17.3758 71.6041 18.2006C73.0361 19.0191 74.1672 20.0485 75.0013 21.2888C75.8316 22.5228 76.2505 23.9615 76.2505 25.6049C76.2505 27.4249 75.9077 29.0031 75.2298 30.3426C74.5481 31.6821 73.634 32.8107 72.4877 33.7285C71.3489 34.6463 70.0845 35.4028 68.6944 35.9982C67.3119 36.5935 65.9142 37.071 64.5051 37.4245C63.1645 37.7655 61.9838 37.9268 60.9708 37.9082C59.9653 37.8834 59.1656 37.871 58.579 37.871C58.2439 37.871 57.9887 37.8958 57.8173 37.9454C57.6536 37.995 57.5736 38.1159 57.5736 38.305C57.5736 38.6461 57.7945 38.919 58.2439 39.1236C58.6895 39.3313 59.2265 39.4833 59.8587 39.5825C60.4871 39.6755 61.0622 39.7189 61.5801 39.7189C62.9588 39.7189 64.1242 39.5794 65.0687 39.2972C66.0209 39.0182 66.8587 38.6988 67.5823 38.3422C68.3021 37.9888 68.9915 37.6694 69.6542 37.3873C70.3245 37.1082 71.0595 36.9656 71.8631 36.9656C72.7352 36.9656 73.4855 37.1392 74.1177 37.4865C74.7461 37.8275 75.2603 38.2647 75.6564 38.8011C76.0524 39.3313 76.3457 39.8771 76.5399 40.4383C76.7304 41.0026 76.8294 41.5142 76.8294 41.9762C76.8294 42.9188 76.2695 43.8583 75.1536 44.7916C74.0339 45.7186 72.3125 46.4907 69.9893 47.1108C67.6623 47.7217 64.6765 48.0286 61.0317 48.0286C57.6498 48.0286 54.6639 47.5728 52.0741 46.6643C49.492 45.7559 47.3249 44.528 45.5692 42.9808C43.8097 41.4367 42.4805 39.7034 41.5779 37.7841C40.6829 35.8586 40.2373 33.8897 40.2373 31.8805ZM55.1057 28.5567C54.4659 29.8961 54.2297 30.9814 54.4049 31.8061C54.5877 32.634 55.1552 33.0464 56.1111 33.0464C57.0861 33.0464 58.0649 32.634 59.0513 31.8061C60.0339 30.9814 60.8527 29.8961 61.504 28.5567C62.1628 27.2017 62.3952 26.1103 62.2047 25.2824C62.0105 24.4576 61.4278 24.0421 60.4528 24.0421C59.5083 24.0421 58.5486 24.4576 57.5736 25.2824C56.5986 26.1103 55.776 27.2017 55.1057 28.5567Z" fill="white"/>
<path d="M86.991 34.4478C85.8637 32.5317 84.8049 30.9007 83.8223 29.5613C82.8473 28.2218 81.9676 27.0745 81.1868 26.1133C80.4023 25.1553 79.7282 24.3026 79.1607 23.5584C78.6008 22.8143 78.1629 22.0825 77.8506 21.3632C77.5459 20.6438 77.3936 19.8439 77.3936 18.9571C77.3936 18.123 77.7325 17.4564 78.4142 16.9603C79.0921 16.458 79.9452 16.2037 80.9735 16.2037H93.2674C93.9872 16.2037 94.7298 16.2751 95.4915 16.4146C96.2609 16.5479 96.9121 16.8177 97.4415 17.2207C97.9671 17.6269 98.2337 18.2377 98.2337 19.0563C98.2337 19.7261 98.0661 20.4175 97.7309 21.1275C97.3958 21.8407 97.2282 22.6344 97.2282 23.5088C97.2282 24.6995 97.5215 25.9614 98.1118 27.2916C98.6983 28.6156 99.3191 30.0512 99.9703 31.5953C100.61 30.0512 101.223 28.6156 101.814 27.2916C102.4 25.9614 102.697 24.6995 102.697 23.5088C102.697 22.6344 102.53 21.8407 102.195 21.1275C101.859 20.4175 101.692 19.7261 101.692 19.0563C101.692 18.2377 101.955 17.6269 102.484 17.2207C103.01 16.8177 103.661 16.5479 104.434 16.4146C105.203 16.2751 105.95 16.2037 106.673 16.2037H115.6C116.625 16.2037 117.478 16.458 118.16 16.9603C118.838 17.4564 119.18 18.123 119.18 18.9571C119.18 19.571 119.051 20.157 118.8 20.7183C118.544 21.2826 118.152 21.9182 117.627 22.6282C117.097 23.3414 116.446 24.2096 115.677 25.2328C114.903 26.2591 114.008 27.5148 112.995 29.0031C111.99 30.4852 110.855 32.2991 109.598 34.4478C108.977 35.499 108.383 36.6369 107.816 37.8585C107.256 39.074 106.65 40.2832 106.003 41.4801C105.363 42.6707 104.651 43.7621 103.87 44.7543C103.086 45.7465 102.187 46.5403 101.174 47.1356C100.157 47.7309 98.9687 48.0286 97.6091 48.0286C96.3599 48.0286 95.2821 47.7309 94.3795 47.1356C93.4845 46.5403 92.7075 45.7465 92.0487 44.7543C91.3974 43.7621 90.8033 42.6707 90.2663 41.4801C89.7255 40.2832 89.1999 39.074 88.6819 37.8585C88.164 36.6369 87.6003 35.499 86.991 34.4478Z" fill="white"/>
<path d="M138.77 48.0286C134.919 48.0286 131.633 47.3558 128.913 46.007C126.19 44.6613 124.107 42.7761 122.668 40.3515C121.236 37.9206 120.52 35.0866 120.52 31.8433C120.52 28.628 121.236 25.8126 122.668 23.3972C124.107 20.9849 126.19 19.1028 128.913 17.7541C131.633 16.4084 134.919 15.7325 138.77 15.7325C142.628 15.7325 145.918 16.4084 148.641 17.7541C151.361 19.1028 153.44 20.9849 154.872 23.3972C156.312 25.8126 157.035 28.628 157.035 31.8433C157.035 35.0866 156.312 37.9206 154.872 40.3515C153.44 42.7761 151.361 44.6613 148.641 46.007C145.918 47.3558 142.628 48.0286 138.77 48.0286ZM135.342 31.9177C135.342 34.2587 135.655 36.1532 136.287 37.5981C136.915 39.0368 137.742 39.7561 138.77 39.7561C139.806 39.7561 140.632 39.0368 141.253 37.5981C141.881 36.1532 142.198 34.2587 142.198 31.9177C142.198 29.5551 141.881 27.6513 141.253 26.2126C140.632 24.7677 139.806 24.0421 138.77 24.0421C137.742 24.0421 136.915 24.7677 136.287 26.2126C135.655 27.6513 135.342 29.5551 135.342 31.9177Z" fill="white"/>
<mask id="mask0_2003_221" style="mask-type:luminance" maskUnits="userSpaceOnUse" x="51" y="0" width="20" height="15">
<path d="M51.7979 0H70.0787V14.883H51.7979V0Z" fill="white"/>
</mask>
<g mask="url(#mask0_2003_221)">
<path d="M69.7245 9.13427C69.7549 9.01334 69.7854 8.88622 69.8082 8.75909C69.7473 8.76219 69.6902 8.76529 69.6292 8.76529C68.3344 8.76529 67.2794 7.90642 67.2794 6.8491C67.2794 6.77469 67.2832 6.69717 67.2984 6.62586C65.8131 6.52044 64.6515 5.50653 64.6515 4.26938C64.6515 3.90661 64.7506 3.56244 64.9334 3.25857C64.1145 2.96091 63.5433 2.28808 63.5433 1.51292C63.5433 1.20596 63.6271 0.917597 63.7908 0.663346C63.4785 0.576528 63.1586 0.502113 62.8349 0.443201C62.8387 0.430798 62.8387 0.418396 62.8387 0.405993C62.8425 0.278868 62.7397 0.167245 62.5911 0.14244C62.0427 0.0525208 61.4753 0.00601196 60.8545 0.00601196C59.3196 0.00601196 57.7924 0.316075 56.4442 0.902094C56.3071 0.964107 56.2424 1.09743 56.2957 1.21526C56.3033 1.22766 56.3071 1.24316 56.3147 1.25557C53.6145 2.52682 51.7979 4.90501 51.7979 7.63356C51.7979 11.7047 55.8539 15.0069 60.8545 15.0069C65.2304 15.0069 68.8714 12.486 69.7245 9.13427Z" fill="white"/>
</g>
<mask id="mask1_2003_221" style="mask-type:luminance" maskUnits="userSpaceOnUse" x="162" y="46" width="10" height="10">
<path d="M162.228 46.928H171.707V55.6594H162.228V46.928Z" fill="white"/>
</mask>
<g mask="url(#mask1_2003_221)">
<path d="M162.228 53.0549C162.228 53.0549 163.191 56.8779 170.252 53.9696C170.252 53.9696 173.322 52.1309 169.193 49.6969C169.193 49.6969 163.698 43.3251 162.228 53.0549Z" fill="white"/>
</g>
<path d="M175.53 51.2379C175.53 51.2379 175.999 53.1076 179.461 51.6844C179.461 51.6844 180.969 50.7821 178.943 49.5884C178.943 49.5884 176.25 46.4691 175.53 51.2379Z" fill="white"/>
<path d="M173.662 57.7058C173.662 57.7058 165.759 59.7956 169.56 62.0622C173.35 64.3257 175.258 65.1256 175.258 65.1256C175.258 65.1256 181.584 57.957 177.619 57.8329C173.662 57.7058 173.662 57.7058 173.662 57.7058Z" fill="white"/>
<mask id="mask2_2003_221" style="mask-type:luminance" maskUnits="userSpaceOnUse" x="148" y="7" width="24" height="20">
<path d="M148.988 7.11914H171.041V26.9245H148.988V7.11914Z" fill="white"/>
</mask>
<g mask="url(#mask2_2003_221)">
<mask id="mask3_2003_221" style="mask-type:luminance" maskUnits="userSpaceOnUse" x="148" y="7" width="24" height="20">
<path d="M160.012 7.11914C153.926 7.11914 148.988 11.5538 148.988 17.0198C148.988 22.4899 153.926 26.9245 160.012 26.9245C166.103 26.9245 171.041 22.4899 171.041 17.0198C171.041 11.5538 166.103 7.11914 160.012 7.11914Z" fill="white"/>
</mask>
<g mask="url(#mask3_2003_221)">
<path d="M148.988 7.11914H171.041V26.9245H148.988V7.11914Z" fill="black"/>
</g>
</g>
<mask id="mask4_2003_221" style="mask-type:luminance" maskUnits="userSpaceOnUse" x="165" y="16" width="18" height="16">
<path d="M165.625 16.7854H182.331V31.7888H165.625V16.7854Z" fill="white"/>
</mask>
<g mask="url(#mask4_2003_221)">
<mask id="mask5_2003_221" style="mask-type:luminance" maskUnits="userSpaceOnUse" x="163" y="15" width="22" height="20">
<path d="M163.41 22.6305L176.405 15.0272L184.867 26.6978L171.876 34.2972L163.41 22.6305Z" fill="white"/>
</mask>
<g mask="url(#mask5_2003_221)">
<mask id="mask6_2003_221" style="mask-type:luminance" maskUnits="userSpaceOnUse" x="166" y="17" width="16" height="15">
<path d="M169.904 18.8289C166.319 20.927 165.306 25.2405 167.642 28.4639C169.978 31.6873 174.781 32.5976 178.37 30.4956C181.959 28.3975 182.973 24.084 180.632 20.8606C178.296 17.6411 173.493 16.7307 169.904 18.8289Z" fill="white"/>
</mask>
<g mask="url(#mask6_2003_221)">
<path d="M163.41 22.6305L176.405 15.0272L184.867 26.6978L171.876 34.2972L163.41 22.6305Z" fill="black"/>
</g>
</g>
</g>
<path d="M33.6953 74.3895V67.6381C33.6953 66.7959 33.9129 66.1748 34.355 65.7713C34.8042 65.3712 35.3586 65.1537 36.0253 65.1256C36.0815 65.1256 36.1727 65.1326 36.306 65.1396C36.4359 65.1396 36.5727 65.1607 36.7131 65.1958C36.8605 65.2344 36.9868 65.294 37.0921 65.3783C37.1938 65.4625 37.2465 65.5818 37.2465 65.7292C37.2465 65.8801 37.1938 66.0029 37.0921 66.0941C36.9868 66.1783 36.871 66.2204 36.7412 66.2204C36.6184 66.2204 36.4955 66.2064 36.3762 66.1783C36.2639 66.1503 36.113 66.1362 35.9271 66.1362C35.5341 66.1362 35.2323 66.2766 35.0288 66.5573C34.8322 66.831 34.734 67.1573 34.734 67.5398V68.368H36.1236C36.2534 68.368 36.3657 68.4171 36.4604 68.5083C36.5517 68.6031 36.6008 68.7189 36.6008 68.8592C36.6008 68.9996 36.5517 69.1189 36.4604 69.2101C36.3657 69.3049 36.2534 69.3505 36.1236 69.3505H34.734V74.3895C34.734 74.5299 34.6849 74.6527 34.5936 74.7544C34.5094 74.8457 34.3831 74.8948 34.2147 74.8948C34.0462 74.8948 33.9129 74.8457 33.8216 74.7544C33.7374 74.6527 33.6953 74.5299 33.6953 74.3895Z" fill="white"/>
<path d="M44.2075 74.9369C43.6636 74.9369 43.204 74.8317 42.832 74.6281C42.4671 74.4141 42.1863 74.1298 41.9898 73.7719C41.8003 73.407 41.7091 72.9999 41.7091 72.5508V70.319C41.7091 69.8699 41.8003 69.4698 41.9898 69.1119C42.1863 68.747 42.4671 68.4627 42.832 68.2557C43.204 68.0416 43.6636 67.9329 44.2075 67.9329C44.7479 67.9329 45.2041 68.0416 45.5691 68.2557C45.941 68.4627 46.2217 68.747 46.4112 69.1119C46.6077 69.4698 46.706 69.8699 46.706 70.319V72.5508C46.706 72.9999 46.6077 73.407 46.4112 73.7719C46.2217 74.1298 45.941 74.4141 45.5691 74.6281C45.2041 74.8317 44.7479 74.9369 44.2075 74.9369ZM44.2075 73.9684C44.6918 73.9684 45.0567 73.8421 45.3024 73.5894C45.5445 73.3368 45.6673 72.9929 45.6673 72.5508V70.305C45.6673 69.8663 45.5445 69.526 45.3024 69.2803C45.0567 69.0277 44.6918 68.9014 44.2075 68.9014C43.7303 68.9014 43.3654 69.0277 43.1127 69.2803C42.8671 69.526 42.7478 69.8663 42.7478 70.305V72.5508C42.7478 72.9929 42.8671 73.3368 43.1127 73.5894C43.3654 73.8421 43.7303 73.9684 44.2075 73.9684Z" fill="white"/>
<path d="M54.4162 74.9369C53.8723 74.9369 53.4127 74.8317 53.0407 74.6281C52.6758 74.4141 52.395 74.1298 52.1985 73.7719C52.009 73.407 51.9178 72.9999 51.9178 72.5508V70.319C51.9178 69.8699 52.009 69.4698 52.1985 69.1119C52.395 68.747 52.6758 68.4627 53.0407 68.2557C53.4127 68.0416 53.8723 67.9329 54.4162 67.9329C54.9566 67.9329 55.4128 68.0416 55.7778 68.2557C56.1497 68.4627 56.4304 68.747 56.6199 69.1119C56.8164 69.4698 56.9147 69.8699 56.9147 70.319V72.5508C56.9147 72.9999 56.8164 73.407 56.6199 73.7719C56.4304 74.1298 56.1497 74.4141 55.7778 74.6281C55.4128 74.8317 54.9566 74.9369 54.4162 74.9369ZM54.4162 73.9684C54.9005 73.9684 55.2654 73.8421 55.5111 73.5894C55.7532 73.3368 55.876 72.9929 55.876 72.5508V70.305C55.876 69.8663 55.7532 69.526 55.5111 69.2803C55.2654 69.0277 54.9005 68.9014 54.4162 68.9014C53.939 68.9014 53.5741 69.0277 53.3214 69.2803C53.0758 69.526 52.9565 69.8663 52.9565 70.305V72.5508C52.9565 72.9929 53.0758 73.3368 53.3214 73.5894C53.5741 73.8421 53.939 73.9684 54.4162 73.9684Z" fill="white"/>
<path d="M64.3609 68.003C64.8381 68.003 65.3329 68.0872 65.8487 68.2557V65.6309C65.8487 65.4906 65.8908 65.3748 65.9751 65.28C66.0663 65.1782 66.1996 65.1256 66.3681 65.1256C66.5365 65.1256 66.6628 65.1782 66.747 65.28C66.8383 65.3748 66.8874 65.4906 66.8874 65.6309V73.2947C66.8874 73.4842 66.9085 73.6421 66.9576 73.7719C67.0137 73.8947 67.105 74.007 67.2383 74.1088C67.2664 74.1368 67.2874 74.1754 67.3085 74.2211C67.326 74.2597 67.3366 74.3123 67.3366 74.3755C67.3366 74.5158 67.2839 74.6281 67.1822 74.7123C67.0874 74.7965 66.9786 74.8387 66.8593 74.8387C66.7084 74.8387 66.5716 74.8036 66.4523 74.7264C66.3295 74.6422 66.2312 74.5369 66.1575 74.4035C65.8557 74.5544 65.5469 74.6808 65.2311 74.7825C64.9223 74.8843 64.5925 74.9369 64.2486 74.9369C63.5468 74.9369 63.0169 74.7053 62.6625 74.2351C62.3046 73.7684 62.1291 73.1613 62.1291 72.4104V70.698C62.1291 70.1646 62.1923 69.6979 62.3256 69.2944C62.466 68.8943 62.6976 68.5785 63.0275 68.3539C63.3538 68.1223 63.7994 68.003 64.3609 68.003ZM65.8487 73.2947V69.1961C65.6241 69.0943 65.3785 69.0242 65.1188 68.9856C64.8662 68.9399 64.6592 68.9154 64.5013 68.9154C64.003 68.9154 63.6591 69.0628 63.4626 69.3505C63.2661 69.6312 63.1678 70.0804 63.1678 70.698V72.4104C63.1678 73.4701 63.6029 73.9965 64.4732 73.9965C64.6872 73.9965 64.9153 73.9649 65.161 73.8982C65.4136 73.8245 65.6522 73.7263 65.8768 73.6035C65.8663 73.5579 65.8557 73.5052 65.8487 73.4491C65.8487 73.3929 65.8487 73.3438 65.8487 73.2947Z" fill="white"/>
<path d="M82.1526 69.8839V74.4035C82.1526 74.5544 82.1 74.6808 81.9982 74.7825C81.9035 74.8843 81.7807 74.9369 81.6333 74.9369C81.4824 74.9369 81.3561 74.8843 81.2543 74.7825C81.1491 74.6808 81.0999 74.5544 81.0999 74.4035V69.8839C81.0999 69.4839 81.0298 69.1751 80.8894 68.9575C80.8613 68.9119 80.8368 68.8698 80.8192 68.8312C80.7982 68.7961 80.7911 68.747 80.7911 68.6908C80.7911 68.5434 80.8368 68.4241 80.9315 68.3399C81.0333 68.2557 81.1491 68.2136 81.2824 68.2136C81.3842 68.2136 81.4824 68.2522 81.5772 68.3259C81.6684 68.3925 81.7491 68.4768 81.8158 68.5785C82.0965 68.4031 82.4088 68.2627 82.7562 68.1574C83.1001 68.0557 83.3949 68.003 83.6405 68.003C83.9107 68.003 84.0931 68.0557 84.1879 68.1574C84.2897 68.2522 84.3423 68.368 84.3423 68.5083C84.3423 68.6768 84.2897 68.8136 84.1879 68.9154C84.0826 69.0101 83.9633 69.0522 83.823 69.0417C83.5422 69.0347 83.2685 69.0522 83.0089 69.0979C82.7562 69.1365 82.4614 69.2803 82.1246 69.533C82.1316 69.5891 82.1386 69.6523 82.1386 69.7155C82.1456 69.7821 82.1526 69.8383 82.1526 69.8839Z" fill="white"/>
<path d="M91.6902 74.0105C91.978 74.0105 92.2236 73.9789 92.4201 73.9123C92.6236 73.8386 92.8447 73.7438 93.0798 73.6315C93.0974 73.6245 93.1219 73.614 93.15 73.6035C93.1851 73.5965 93.2272 73.5894 93.2763 73.5894C93.4062 73.5894 93.5149 73.6386 93.5992 73.7298C93.6904 73.8245 93.7395 73.9368 93.7395 74.0667C93.7395 74.2281 93.6588 74.3614 93.5009 74.4737C93.35 74.586 93.157 74.6772 92.9254 74.7404C92.6903 74.8071 92.4517 74.8527 92.2096 74.8808C91.9639 74.9159 91.7534 74.9369 91.5779 74.9369C90.82 74.9369 90.2305 74.7229 89.8094 74.2912C89.3953 73.8631 89.1918 73.3333 89.1918 72.7052V70.2067C89.1918 69.5716 89.3953 69.0382 89.8094 68.6066C90.2305 68.168 90.8375 67.9469 91.6341 67.9469C92.371 67.9469 92.9254 68.1504 93.2904 68.5504C93.6623 68.9435 93.8518 69.4698 93.8518 70.1225C93.8518 70.7401 93.6729 71.2278 93.3184 71.5823C92.9605 71.9402 92.385 72.1156 91.592 72.1156C91.3955 72.1156 91.1744 72.1086 90.9323 72.0876C90.6972 72.0595 90.4621 72.0279 90.2305 71.9893V72.7753C90.2305 73.1508 90.3498 73.4491 90.5954 73.6737C90.8481 73.8982 91.213 74.0105 91.6902 74.0105ZM92.8272 70.1225C92.8272 69.6944 92.7184 69.3856 92.5043 69.1961C92.2973 68.9996 91.999 68.9013 91.606 68.9013C91.1744 68.9013 90.8375 69.0136 90.5954 69.2382C90.3498 69.4558 90.2305 69.7505 90.2305 70.1225V71.1331C90.4831 71.1717 90.7428 71.1998 91.0165 71.2173C91.2972 71.2278 91.5008 71.2314 91.6341 71.2314C91.971 71.2314 92.2236 71.1822 92.3921 71.077C92.5675 70.9647 92.6868 70.8243 92.743 70.6559C92.7991 70.4874 92.8272 70.312 92.8272 70.1225Z" fill="white"/>
<path d="M103.814 68.6487L101.989 74.3053C101.922 74.5299 101.838 74.6948 101.736 74.7965C101.631 74.8878 101.491 74.9369 101.315 74.9369C101.136 74.9369 100.996 74.8878 100.894 74.7965C100.789 74.6948 100.701 74.5369 100.627 74.3193L98.7747 68.6066C98.7185 68.4487 98.7501 68.3083 98.8729 68.1855C98.9922 68.0557 99.1291 67.989 99.28 67.989C99.5116 67.989 99.6659 68.1083 99.7431 68.3399L101.315 73.3789L102.845 68.3399C102.88 68.2381 102.943 68.1539 103.028 68.0872C103.119 68.0241 103.217 67.989 103.322 67.989C103.48 67.989 103.61 68.0557 103.715 68.1855C103.828 68.3188 103.859 68.4732 103.814 68.6487Z" fill="white"/>
<path d="M110.439 65.8836C110.439 66.0625 110.372 66.2169 110.243 66.3468C110.12 66.4696 109.969 66.5292 109.793 66.5292C109.614 66.5292 109.464 66.4696 109.344 66.3468C109.221 66.2169 109.162 66.0625 109.162 65.8836C109.162 65.7081 109.221 65.5572 109.344 65.4344C109.464 65.3151 109.614 65.2519 109.793 65.2519C109.969 65.2519 110.12 65.3151 110.243 65.4344C110.372 65.5572 110.439 65.7081 110.439 65.8836ZM110.313 74.4035C110.313 74.5544 110.26 74.6808 110.158 74.7825C110.064 74.8843 109.941 74.9369 109.793 74.9369C109.653 74.9369 109.53 74.8843 109.428 74.7825C109.323 74.6808 109.274 74.5544 109.274 74.4035V68.5083C109.274 68.368 109.323 68.2487 109.428 68.1434C109.53 68.0416 109.653 67.989 109.793 67.989C109.941 67.989 110.064 68.0416 110.158 68.1434C110.26 68.2487 110.313 68.368 110.313 68.5083V74.4035Z" fill="white"/>
<path d="M118.553 74.0105C118.841 74.0105 119.086 73.9789 119.283 73.9123C119.486 73.8386 119.707 73.7438 119.942 73.6315C119.96 73.6245 119.985 73.614 120.013 73.6035C120.048 73.5965 120.09 73.5894 120.139 73.5894C120.269 73.5894 120.378 73.6386 120.462 73.7298C120.553 73.8245 120.602 73.9368 120.602 74.0667C120.602 74.2281 120.521 74.3614 120.364 74.4737C120.213 74.586 120.02 74.6772 119.788 74.7404C119.553 74.8071 119.314 74.8527 119.072 74.8808C118.827 74.9159 118.616 74.9369 118.441 74.9369C117.683 74.9369 117.093 74.7229 116.672 74.2912C116.258 73.8631 116.054 73.3333 116.054 72.7052V70.2067C116.054 69.5716 116.258 69.0382 116.672 68.6066C117.093 68.168 117.7 67.9469 118.497 67.9469C119.234 67.9469 119.788 68.1504 120.153 68.5504C120.525 68.9435 120.714 69.4698 120.714 70.1225C120.714 70.7401 120.536 71.2278 120.181 71.5823C119.823 71.9402 119.248 72.1156 118.455 72.1156C118.258 72.1156 118.037 72.1086 117.795 72.0876C117.56 72.0595 117.325 72.0279 117.093 71.9893V72.7753C117.093 73.1508 117.212 73.4491 117.458 73.6737C117.711 73.8982 118.076 74.0105 118.553 74.0105ZM119.69 70.1225C119.69 69.6944 119.581 69.3856 119.367 69.1961C119.16 68.9996 118.862 68.9013 118.469 68.9013C118.037 68.9013 117.7 69.0136 117.458 69.2382C117.212 69.4558 117.093 69.7505 117.093 70.1225V71.1331C117.346 71.1717 117.605 71.1998 117.879 71.2173C118.16 71.2278 118.363 71.2314 118.497 71.2314C118.834 71.2314 119.086 71.1822 119.255 71.077C119.43 70.9647 119.549 70.8243 119.606 70.6559C119.662 70.4874 119.69 70.312 119.69 70.1225Z" fill="white"/>
<path d="M133.681 68.6066L132.151 74.3334C132.085 74.5299 132.004 74.6808 131.913 74.7825C131.818 74.8843 131.674 74.9369 131.478 74.9369C131.337 74.9369 131.211 74.8948 131.099 74.8106C130.986 74.7264 130.906 74.6141 130.86 74.4737L129.667 69.7856L128.474 74.4737C128.379 74.7825 128.169 74.9369 127.842 74.9369C127.663 74.9369 127.519 74.8843 127.407 74.7825C127.302 74.6702 127.225 74.5228 127.168 74.3334L125.624 68.5645C125.614 68.5469 125.61 68.5189 125.61 68.4803C125.61 68.361 125.66 68.2487 125.765 68.1434C125.867 68.0416 125.989 67.989 126.13 67.989C126.232 67.989 126.326 68.0241 126.411 68.0872C126.502 68.1434 126.568 68.2381 126.607 68.368L127.87 73.2806C128.074 72.4771 128.277 71.677 128.474 70.8805C128.677 70.0769 128.881 69.2663 129.077 68.4522C129.105 68.3224 129.169 68.2136 129.274 68.1294C129.376 68.0381 129.513 67.989 129.681 67.989C129.828 67.989 129.951 68.0381 130.046 68.1294C130.148 68.2136 130.218 68.3224 130.256 68.4522C130.442 69.2663 130.639 70.0769 130.846 70.8805C131.049 71.677 131.257 72.4771 131.464 73.2806L132.713 68.368C132.741 68.2557 132.797 68.168 132.881 68.1013C132.972 68.0276 133.078 67.989 133.19 67.989C133.32 67.989 133.436 68.0416 133.541 68.1434C133.643 68.2381 133.695 68.361 133.695 68.5083C133.695 68.5189 133.688 68.5329 133.681 68.5504C133.681 68.5715 133.681 68.589 133.681 68.6066Z" fill="white"/>
</svg>
