<svg width="570" height="11" viewBox="0 0 570 11" fill="none" xmlns="http://www.w3.org/2000/svg">
<path d="M544.002 10.2449C554.242 9.52794 570 6.4695 570 6.4695L570 0.978027L0 0.978069L1.04907e-06 11C1.04907e-06 11 59.3908 5.17935 97.582 6.46954C115.37 7.07045 125.209 9.47263 142.99 10.2449C180.257 11.8636 201.137 5.76216 238.435 6.46953C263.65 6.94775 277.681 9.73783 302.896 10.2449C341.304 11.0173 362.861 3.9689 401.19 6.46952C415.426 7.39828 423.258 9.73273 437.516 10.2449C459.321 11.0281 471.433 6.32509 493.252 6.46951C513.13 6.60108 524.176 11.6329 544.002 10.2449Z" fill="#0A0A0A"/>
</svg>
