<svg width="570" height="13" viewBox="0 0 570 13" fill="none" xmlns="http://www.w3.org/2000/svg">
<path d="M544.002 3.26047C554.242 3.97743 570 7.03587 570 7.03587L570 12.5273L0 12.5273L1.31134e-06 -0.000129355C1.31134e-06 -0.000129355 59.3908 8.32602 97.582 7.03583C115.37 6.43492 125.209 4.03274 142.99 3.26044C180.257 1.64175 201.137 7.74322 238.435 7.03584C263.65 6.55762 277.681 3.76754 302.896 3.26046C341.304 2.48804 362.861 9.53647 401.19 7.03585C415.426 6.10709 423.258 3.77264 437.516 3.26047C459.321 2.47723 471.433 7.18028 493.252 7.03586C513.13 6.90429 524.176 1.87245 544.002 3.26047Z" fill="#0A0A0A"/>
</svg>
